<svg width="147" height="152" viewBox="0 0 147 152" fill="none" xmlns="http://www.w3.org/2000/svg">
<path fill-rule="evenodd" clip-rule="evenodd" d="M143.642 211.888H143.615C142.438 211.888 141.406 212.355 140.547 213.025C140.381 213.156 140.174 213.233 140.026 213.381C139.201 214.211 138.725 215.345 138.621 216.582C138.611 216.72 138.542 216.841 138.542 216.983C138.542 217.612 138.69 218.2 138.901 218.753C138.97 218.933 139.056 219.088 139.143 219.258C139.329 219.62 139.553 219.956 139.822 220.263C139.953 220.416 140.071 220.571 140.219 220.706C140.626 221.076 141.075 221.401 141.586 221.625H141.589C142.221 221.905 142.911 222.075 143.642 222.075C145.91 222.075 147.763 220.568 148.422 218.511C148.598 218.041 148.719 217.55 148.722 217.011C148.722 217 148.729 216.993 148.729 216.983C148.729 214.166 146.451 211.888 143.642 211.888ZM214.801 151.15C214.308 150.943 213.759 150.863 213.196 150.825C213.096 150.822 213.017 150.766 212.913 150.766H212.886C210.077 150.766 207.813 153.047 207.813 155.863C207.813 156.547 207.958 157.194 208.203 157.781C208.376 158.203 208.659 158.541 208.924 158.897C209.035 159.032 209.097 159.198 209.214 159.322C210.06 160.221 211.226 160.774 212.53 160.877C212.537 160.877 212.544 160.881 212.551 160.884V160.881C212.675 160.891 212.786 160.953 212.913 160.953C215.722 160.953 218 158.673 218 155.863C218 153.721 216.671 151.903 214.801 151.15ZM39.7359 61.1215H39.7083C36.8993 61.1215 34.6355 63.4022 34.6355 66.215C34.6355 69.0243 36.9269 71.3084 39.7359 71.3084C42.5414 71.3084 44.8224 69.0243 44.8224 66.215C44.8224 63.4022 42.5414 61.1215 39.7359 61.1215ZM39.7359 181.327H39.7083C36.8993 181.327 34.6355 183.605 34.6355 186.422C34.6355 189.233 36.9269 191.514 39.7359 191.514C42.5414 191.514 44.8224 189.233 44.8224 186.422C44.8224 183.605 42.5414 181.327 39.7359 181.327ZM74.3714 101.869C77.1804 101.869 79.4579 99.5851 79.4579 96.7757C79.4579 93.9594 77.1804 91.6822 74.3714 91.6822H74.3472C71.5348 91.6822 69.271 93.9594 69.271 96.7757C69.271 99.5851 71.5624 101.869 74.3714 101.869ZM39.7359 30.5607H39.7083C36.8993 30.5607 34.6355 32.8414 34.6355 35.6542C34.6355 38.467 36.9269 40.7477 39.7359 40.7477C42.5414 40.7477 44.8224 38.467 44.8224 35.6542C44.8224 32.8414 42.5414 30.5607 39.7359 30.5607ZM39.7359 120.206H39.7083C36.8993 120.206 34.6355 122.486 34.6355 125.299C34.6355 128.112 36.9269 130.393 39.7359 130.393C42.5414 130.393 44.8224 128.112 44.8224 125.299C44.8224 122.486 42.5414 120.206 39.7359 120.206ZM39.7359 150.766H39.7083C36.8993 150.766 34.6355 153.047 34.6355 155.863C34.6355 158.673 36.9269 160.953 39.7359 160.953C42.5414 160.953 44.8224 158.673 44.8224 155.863C44.8224 153.047 42.5414 150.766 39.7359 150.766ZM74.3714 40.7477C77.1804 40.7477 79.4579 38.467 79.4579 35.6542C79.4579 32.8414 77.1804 30.5607 74.3714 30.5607H74.3472C71.5348 30.5607 69.271 32.8414 69.271 35.6542C69.271 38.467 71.5624 40.7477 74.3714 40.7477ZM74.3714 71.3084C77.1804 71.3084 79.4579 69.0243 79.4579 66.215C79.4579 63.4022 77.1804 61.1215 74.3714 61.1215H74.3472C71.5348 61.1215 69.271 63.4022 69.271 66.215C69.271 69.0243 71.5624 71.3084 74.3714 71.3084ZM74.3714 10.1869C77.1804 10.1869 79.4579 7.90626 79.4579 5.09346C79.4579 2.28065 77.1804 0 74.3714 0H74.3472C71.5348 0 69.271 2.28065 69.271 5.09346C69.271 7.90626 71.5624 10.1869 74.3714 10.1869ZM39.7359 91.6822H39.7083C36.8993 91.6822 34.6355 93.9594 34.6355 96.7757C34.6355 99.5851 36.9269 101.869 39.7359 101.869C42.5414 101.869 44.8224 99.5851 44.8224 96.7757C44.8224 93.9594 42.5414 91.6822 39.7359 91.6822ZM5.10381 120.206H5.07275C2.26376 120.206 0 122.486 0 125.299C0 128.112 2.29482 130.393 5.10381 130.393C7.91281 130.393 10.1869 128.112 10.1869 125.299C10.1869 122.486 7.91281 120.206 5.10381 120.206ZM5.10381 91.6822H5.07275C2.26376 91.6822 0 93.9594 0 96.7757C0 99.5851 2.29482 101.869 5.10381 101.869C7.91281 101.869 10.1869 99.5851 10.1869 96.7757C10.1869 93.9594 7.91281 91.6822 5.10381 91.6822ZM5.10209 150.766H5.07102C4.4324 150.766 3.8352 150.911 3.27942 151.133C2.99636 151.24 2.76162 151.413 2.50617 151.568C2.29214 151.703 2.07467 151.824 1.88135 151.993C1.54651 152.266 1.28415 152.584 1.0287 152.936C0.980374 153.009 0.932046 153.075 0.883718 153.154C0.607556 153.583 0.403887 154.032 0.265806 154.536L0.262354 154.54V154.543C0.144985 154.972 0 155.393 0 155.863C0 157.867 1.19095 159.564 2.87899 160.393V160.397H2.88244C3.55558 160.725 4.28051 160.943 5.07447 160.946C5.08483 160.946 5.09173 160.953 5.10209 160.953C7.91203 160.953 10.1869 158.673 10.1869 155.863C10.1869 155.158 10.0454 154.488 9.78648 153.88C9.01668 152.052 7.20782 150.766 5.10209 150.766ZM178.278 91.6822H178.25C175.441 91.6822 173.178 93.9594 173.178 96.7757C173.178 99.5851 175.469 101.869 178.278 101.869C181.087 101.869 183.364 99.5851 183.364 96.7757C183.364 93.9594 181.087 91.6822 178.278 91.6822ZM5.10209 61.1215H5.07102C4.49108 61.1215 3.95602 61.2494 3.45202 61.4498C2.9929 61.6087 2.59247 61.8472 2.20584 62.1236C2.20239 62.1236 2.20239 62.1236 2.19894 62.1271C0.897526 63.0497 0 64.4941 0 66.215C0 66.4327 0.0966566 66.6158 0.124273 66.83H0.120821C0.120821 66.837 0.124273 66.8404 0.127725 66.8439C0.286518 68.0844 0.842293 69.1798 1.72946 69.9746C1.85028 70.0852 2.00217 70.1474 2.1299 70.2441C2.47855 70.4998 2.8134 70.7659 3.22419 70.9283C3.80068 71.1667 4.42894 71.3084 5.10209 71.3084C7.20782 71.3084 9.01668 70.0264 9.78648 68.195C10.0454 67.5868 10.1869 66.9164 10.1869 66.215C10.1869 65.5135 10.0454 64.8431 9.78648 64.2349C9.01668 62.4035 7.20782 61.1215 5.10209 61.1215ZM178.278 120.206H178.25C175.441 120.206 173.178 122.486 173.178 125.299C173.178 128.112 175.469 130.393 178.278 130.393C181.087 130.393 183.364 128.112 183.364 125.299C183.364 122.486 181.087 120.206 178.278 120.206ZM178.278 61.1215H178.25C175.441 61.1215 173.178 63.4022 173.178 66.215C173.178 69.0243 175.469 71.3084 178.278 71.3084C181.087 71.3084 183.364 69.0243 183.364 66.215C183.364 63.4022 181.087 61.1215 178.278 61.1215ZM178.278 181.327H178.25C175.441 181.327 173.178 183.605 173.178 186.422C173.178 189.233 175.469 191.514 178.278 191.514C181.087 191.514 183.364 189.233 183.364 186.422C183.364 183.605 181.087 181.327 178.278 181.327ZM178.278 150.766H178.25C175.441 150.766 173.178 153.047 173.178 155.863C173.178 158.673 175.469 160.953 178.278 160.953C181.087 160.953 183.364 158.673 183.364 155.863C183.364 153.047 181.087 150.766 178.278 150.766ZM143.644 10.1869C146.452 10.1869 148.729 7.90626 148.729 5.09346C148.729 5.09346 148.726 5.09 148.726 5.08655C148.726 4.26067 148.484 3.51082 148.132 2.81972C148.098 2.75406 148.053 2.70568 148.015 2.64348C147.646 1.99039 147.142 1.44787 146.532 1.01247H146.528C145.697 0.421575 144.738 0 143.644 0H143.617C140.809 0 138.542 2.28065 138.542 5.09346C138.542 7.90626 140.836 10.1869 143.644 10.1869ZM178.278 30.5607H178.25C175.441 30.5607 173.178 32.8414 173.178 35.6542C173.178 38.467 175.469 40.7477 178.278 40.7477C181.087 40.7477 183.364 38.467 183.364 35.6542C183.364 32.8414 181.087 30.5607 178.278 30.5607ZM143.642 61.1215H143.615C140.806 61.1215 138.542 63.4022 138.542 66.215C138.542 69.0243 140.833 71.3084 143.642 71.3084C146.451 71.3084 148.729 69.0243 148.729 66.215C148.729 63.4022 146.451 61.1215 143.642 61.1215ZM143.642 150.766H143.615C140.806 150.766 138.542 153.047 138.542 155.863C138.542 158.673 140.833 160.953 143.642 160.953C146.451 160.953 148.729 158.673 148.729 155.863C148.729 153.047 146.451 150.766 143.642 150.766ZM143.642 120.206H143.615C140.806 120.206 138.542 122.486 138.542 125.299C138.542 128.112 140.833 130.393 143.642 130.393C146.451 130.393 148.729 128.112 148.729 125.299C148.729 122.486 146.451 120.206 143.642 120.206ZM143.642 91.6822H143.615C140.806 91.6822 138.542 93.9594 138.542 96.7757C138.542 99.5851 140.833 101.869 143.642 101.869C146.451 101.869 148.729 99.5851 148.729 96.7757C148.729 93.9594 146.451 91.6822 143.642 91.6822ZM143.642 181.327H143.615C140.806 181.327 138.542 183.605 138.542 186.422C138.542 189.233 140.833 191.514 143.642 191.514C146.451 191.514 148.729 189.233 148.729 186.422C148.729 183.605 146.451 181.327 143.642 181.327ZM74.3714 130.393C77.1804 130.393 79.4579 128.112 79.4579 125.299C79.4579 122.486 77.1804 120.206 74.3714 120.206H74.3472C71.5348 120.206 69.271 122.486 69.271 125.299C69.271 128.112 71.5624 130.393 74.3714 130.393ZM77.9672 213.381C77.8153 213.229 77.6083 213.153 77.4392 213.025C76.5799 212.355 75.5481 211.888 74.3714 211.888H74.3438C71.5348 211.888 69.271 214.166 69.271 216.983C69.271 218.366 69.8335 219.61 70.7307 220.53C70.7342 220.533 70.7342 220.537 70.7376 220.537C71.6625 221.484 72.9462 222.075 74.3714 222.075C74.6406 222.075 74.8718 221.964 75.1306 221.923C75.134 221.923 75.1375 221.919 75.1409 221.919C76.3418 221.733 77.3909 221.179 78.1535 220.305C78.2777 220.17 78.3502 220.004 78.4572 219.856C78.6884 219.527 78.9334 219.216 79.0853 218.839C79.313 218.276 79.4476 217.661 79.451 217.004C79.451 216.997 79.4579 216.993 79.4579 216.983C79.4579 215.69 78.9369 214.543 78.1466 213.644C78.0742 213.561 78.0431 213.454 77.9672 213.381ZM210.93 70.9077C211.541 71.1668 212.211 71.3084 212.915 71.3084C213.657 71.3084 214.351 71.1322 214.986 70.8455C215.007 70.8352 215.021 70.8179 215.042 70.8075C215.663 70.5174 216.198 70.1097 216.65 69.6054C217.472 68.7038 218 67.5293 218 66.2167C218 63.4048 215.722 61.1215 212.915 61.1215H212.888C210.078 61.1215 207.813 63.4048 207.813 66.2167C207.813 68.3238 209.101 70.1339 210.93 70.9077ZM212.915 101.869C215.722 101.869 218 99.5851 218 96.7757C218 93.9594 215.722 91.6822 212.915 91.6822H212.888C210.078 91.6822 207.813 93.9594 207.813 96.7757C207.813 99.5851 210.102 101.869 212.915 101.869ZM212.915 130.393C215.722 130.393 218 128.112 218 125.299C218 122.486 215.722 120.206 212.915 120.206H212.888C210.078 120.206 207.813 122.486 207.813 125.299C207.813 128.112 210.102 130.393 212.915 130.393ZM109.007 61.1215H108.983C106.174 61.1215 103.907 63.4022 103.907 66.215C103.907 69.0243 106.198 71.3084 109.007 71.3084C111.816 71.3084 114.093 69.0243 114.093 66.215C114.093 63.4022 111.816 61.1215 109.007 61.1215ZM109.007 30.5607H108.983C106.174 30.5607 103.907 32.8414 103.907 35.6542C103.907 38.467 106.198 40.7477 109.007 40.7477C111.816 40.7477 114.093 38.467 114.093 35.6542C114.093 32.8414 111.816 30.5607 109.007 30.5607ZM109.007 0H108.983C106.174 0 103.907 2.28065 103.907 5.09346C103.907 7.90626 106.198 10.1869 109.007 10.1869C111.816 10.1869 114.093 7.90626 114.093 5.09346C114.093 2.28065 111.816 0 109.007 0ZM74.3714 191.514C77.1804 191.514 79.4579 189.233 79.4579 186.422C79.4579 183.605 77.1804 181.327 74.3714 181.327H74.3472C71.5348 181.327 69.271 183.605 69.271 186.422C69.271 189.233 71.5624 191.514 74.3714 191.514ZM74.3714 160.953C77.1804 160.953 79.4579 158.673 79.4579 155.863C79.4579 153.047 77.1804 150.766 74.3714 150.766H74.3472C71.5348 150.766 69.271 153.047 69.271 155.863C69.271 158.673 71.5624 160.953 74.3714 160.953ZM109.007 91.6822H108.983C106.174 91.6822 103.907 93.9594 103.907 96.7757C103.907 99.5851 106.198 101.869 109.007 101.869C111.816 101.869 114.093 99.5851 114.093 96.7757C114.093 93.9594 111.816 91.6822 109.007 91.6822ZM143.642 30.5607H143.615C140.806 30.5607 138.542 32.8414 138.542 35.6542C138.542 38.467 140.833 40.7477 143.642 40.7477C146.451 40.7477 148.729 38.467 148.729 35.6542C148.729 32.8414 146.451 30.5607 143.642 30.5607ZM109.007 181.327H108.983C106.174 181.327 103.907 183.605 103.907 186.422C103.907 189.233 106.198 191.514 109.007 191.514C111.816 191.514 114.093 189.233 114.093 186.422C114.093 183.605 111.816 181.327 109.007 181.327ZM109.007 211.888H108.983C106.174 211.888 103.907 214.169 103.907 216.983C103.907 219.797 106.198 222.075 109.007 222.075C111.816 222.075 114.093 219.797 114.093 216.983C114.093 214.169 111.816 211.888 109.007 211.888ZM109.007 150.766H108.983C106.174 150.766 103.907 153.047 103.907 155.863C103.907 158.673 106.198 160.953 109.007 160.953C111.816 160.953 114.093 158.673 114.093 155.863C114.093 153.047 111.816 150.766 109.007 150.766ZM109.007 120.206H108.983C106.174 120.206 103.907 122.486 103.907 125.299C103.907 128.112 106.198 130.393 109.007 130.393C111.816 130.393 114.093 128.112 114.093 125.299C114.093 122.486 111.816 120.206 109.007 120.206Z" fill="#473BF0" fill-opacity="0.8"/>
</svg>
