<svg width="104" height="223" viewBox="0 0 104 223" fill="none" xmlns="http://www.w3.org/2000/svg">
<path fill-rule="evenodd" clip-rule="evenodd" d="M98.2458 10.1089C95.7303 10.1089 93.6914 8.06861 93.6914 5.55529C93.6914 3.04025 95.7303 1 98.2458 1C100.761 1 102.8 3.04025 102.8 5.55529C102.8 8.06861 100.761 10.1089 98.2458 10.1089Z" stroke="#407BFF"/>
<path fill-rule="evenodd" clip-rule="evenodd" d="M98.2458 34.8325C95.7303 34.8325 93.6914 32.7922 93.6914 30.2789C93.6914 27.7639 95.7303 25.7236 98.2458 25.7236C100.761 25.7236 102.8 27.7639 102.8 30.2789C102.8 32.7922 100.761 34.8325 98.2458 34.8325Z" stroke="#407BFF"/>
<path fill-rule="evenodd" clip-rule="evenodd" d="M98.2458 58.2553C95.7303 58.2553 93.6914 56.2151 93.6914 53.7018C93.6914 51.1867 95.7303 49.1465 98.2458 49.1465C100.761 49.1465 102.8 51.1867 102.8 53.7018C102.8 56.2151 100.761 58.2553 98.2458 58.2553Z" stroke="#407BFF"/>
<path fill-rule="evenodd" clip-rule="evenodd" d="M98.2458 81.6782C95.7303 81.6782 93.6914 79.6397 93.6914 77.1246C93.6914 74.6096 95.7303 72.5693 98.2458 72.5693C100.761 72.5693 102.8 74.6096 102.8 77.1246C102.8 79.6397 100.761 81.6782 98.2458 81.6782Z" stroke="#407BFF"/>
<path fill-rule="evenodd" clip-rule="evenodd" d="M98.2458 105.101C95.7303 105.101 93.6914 103.062 93.6914 100.547C93.6914 98.0311 95.7303 95.9922 98.2458 95.9922C100.761 95.9922 102.8 98.0311 102.8 100.547C102.8 103.062 100.761 105.101 98.2458 105.101Z" stroke="#407BFF"/>
<path fill-rule="evenodd" clip-rule="evenodd" d="M98.2458 128.524C95.7303 128.524 93.6914 126.485 93.6914 123.969C93.6914 121.454 95.7303 119.415 98.2458 119.415C100.761 119.415 102.8 121.454 102.8 123.969C102.8 126.485 100.761 128.524 98.2458 128.524Z" stroke="#407BFF"/>
<path fill-rule="evenodd" clip-rule="evenodd" d="M98.2458 151.947C95.7303 151.947 93.6914 149.908 93.6914 147.394C93.6914 144.877 95.7303 142.838 98.2458 142.838C100.761 142.838 102.8 144.877 102.8 147.394C102.8 149.908 100.761 151.947 98.2458 151.947Z" stroke="#407BFF"/>
<path fill-rule="evenodd" clip-rule="evenodd" d="M98.2458 175.37C95.7303 175.37 93.6914 173.329 93.6914 170.816C93.6914 168.299 95.7303 166.261 98.2458 166.261C100.761 166.261 102.8 168.299 102.8 170.816C102.8 173.329 100.761 175.37 98.2458 175.37Z" stroke="#407BFF"/>
<path fill-rule="evenodd" clip-rule="evenodd" d="M98.2458 198.792C95.7303 198.792 93.6914 196.752 93.6914 194.239C93.6914 191.724 95.7303 189.684 98.2458 189.684C100.761 189.684 102.8 191.724 102.8 194.239C102.8 196.752 100.761 198.792 98.2458 198.792Z" stroke="#407BFF"/>
<path fill-rule="evenodd" clip-rule="evenodd" d="M98.2458 222.215C95.7303 222.215 93.6914 220.175 93.6914 217.662C93.6914 215.147 95.7303 213.106 98.2458 213.106C100.761 213.106 102.8 215.147 102.8 217.662C102.8 220.175 100.761 222.215 98.2458 222.215Z" stroke="#407BFF"/>
<path fill-rule="evenodd" clip-rule="evenodd" d="M74.823 10.1089C72.3075 10.1089 70.2686 8.06861 70.2686 5.55529C70.2686 3.04025 72.3075 1 74.823 1C77.3385 1 79.3774 3.04025 79.3774 5.55529C79.3774 8.06861 77.3385 10.1089 74.823 10.1089Z" stroke="#407BFF"/>
<path fill-rule="evenodd" clip-rule="evenodd" d="M74.823 34.8325C72.3075 34.8325 70.2686 32.7922 70.2686 30.2789C70.2686 27.7639 72.3075 25.7236 74.823 25.7236C77.3385 25.7236 79.3774 27.7639 79.3774 30.2789C79.3774 32.7922 77.3385 34.8325 74.823 34.8325Z" stroke="#407BFF"/>
<path fill-rule="evenodd" clip-rule="evenodd" d="M74.823 58.2553C72.3075 58.2553 70.2686 56.2151 70.2686 53.7018C70.2686 51.1867 72.3075 49.1465 74.823 49.1465C77.3385 49.1465 79.3774 51.1867 79.3774 53.7018C79.3774 56.2151 77.3385 58.2553 74.823 58.2553Z" stroke="#407BFF"/>
<path fill-rule="evenodd" clip-rule="evenodd" d="M74.823 81.6782C72.3075 81.6782 70.2686 79.6397 70.2686 77.1246C70.2686 74.6096 72.3075 72.5693 74.823 72.5693C77.3385 72.5693 79.3774 74.6096 79.3774 77.1246C79.3774 79.6397 77.3385 81.6782 74.823 81.6782Z" stroke="#407BFF"/>
<path fill-rule="evenodd" clip-rule="evenodd" d="M74.823 105.101C72.3075 105.101 70.2686 103.062 70.2686 100.547C70.2686 98.0311 72.3075 95.9922 74.823 95.9922C77.3385 95.9922 79.3774 98.0311 79.3774 100.547C79.3774 103.062 77.3385 105.101 74.823 105.101Z" stroke="#407BFF"/>
<path fill-rule="evenodd" clip-rule="evenodd" d="M74.823 128.524C72.3075 128.524 70.2686 126.485 70.2686 123.969C70.2686 121.454 72.3075 119.415 74.823 119.415C77.3385 119.415 79.3774 121.454 79.3774 123.969C79.3774 126.485 77.3385 128.524 74.823 128.524Z" stroke="#407BFF"/>
<path fill-rule="evenodd" clip-rule="evenodd" d="M74.823 151.947C72.3075 151.947 70.2686 149.908 70.2686 147.394C70.2686 144.877 72.3075 142.838 74.823 142.838C77.3385 142.838 79.3774 144.877 79.3774 147.394C79.3774 149.908 77.3385 151.947 74.823 151.947Z" stroke="#407BFF"/>
<path fill-rule="evenodd" clip-rule="evenodd" d="M74.823 175.37C72.3075 175.37 70.2686 173.329 70.2686 170.816C70.2686 168.299 72.3075 166.261 74.823 166.261C77.3385 166.261 79.3774 168.299 79.3774 170.816C79.3774 173.329 77.3385 175.37 74.823 175.37Z" stroke="#407BFF"/>
<path fill-rule="evenodd" clip-rule="evenodd" d="M74.823 198.792C72.3075 198.792 70.2686 196.752 70.2686 194.239C70.2686 191.724 72.3075 189.684 74.823 189.684C77.3385 189.684 79.3774 191.724 79.3774 194.239C79.3774 196.752 77.3385 198.792 74.823 198.792Z" stroke="#407BFF"/>
<path fill-rule="evenodd" clip-rule="evenodd" d="M74.823 222.215C72.3075 222.215 70.2686 220.175 70.2686 217.662C70.2686 215.147 72.3075 213.106 74.823 213.106C77.3385 213.106 79.3774 215.147 79.3774 217.662C79.3774 220.175 77.3385 222.215 74.823 222.215Z" stroke="#407BFF"/>
<path fill-rule="evenodd" clip-rule="evenodd" d="M51.4001 10.1089C48.8846 10.1089 46.8457 8.06861 46.8457 5.55529C46.8457 3.04025 48.8846 1 51.4001 1C53.9156 1 55.9546 3.04025 55.9546 5.55529C55.9546 8.06861 53.9156 10.1089 51.4001 10.1089Z" stroke="#407BFF"/>
<path fill-rule="evenodd" clip-rule="evenodd" d="M51.4001 34.8325C48.8846 34.8325 46.8457 32.7922 46.8457 30.2789C46.8457 27.7639 48.8846 25.7236 51.4001 25.7236C53.9156 25.7236 55.9546 27.7639 55.9546 30.2789C55.9546 32.7922 53.9156 34.8325 51.4001 34.8325Z" stroke="#407BFF"/>
<path fill-rule="evenodd" clip-rule="evenodd" d="M51.4001 58.2553C48.8846 58.2553 46.8457 56.2151 46.8457 53.7018C46.8457 51.1867 48.8846 49.1465 51.4001 49.1465C53.9156 49.1465 55.9546 51.1867 55.9546 53.7018C55.9546 56.2151 53.9156 58.2553 51.4001 58.2553Z" stroke="#407BFF"/>
<path fill-rule="evenodd" clip-rule="evenodd" d="M51.4001 81.6782C48.8846 81.6782 46.8457 79.6397 46.8457 77.1246C46.8457 74.6096 48.8846 72.5693 51.4001 72.5693C53.9156 72.5693 55.9546 74.6096 55.9546 77.1246C55.9546 79.6397 53.9156 81.6782 51.4001 81.6782Z" stroke="#407BFF"/>
<path fill-rule="evenodd" clip-rule="evenodd" d="M51.4001 105.101C48.8846 105.101 46.8457 103.062 46.8457 100.547C46.8457 98.0311 48.8846 95.9922 51.4001 95.9922C53.9156 95.9922 55.9546 98.0311 55.9546 100.547C55.9546 103.062 53.9156 105.101 51.4001 105.101Z" stroke="#407BFF"/>
<path fill-rule="evenodd" clip-rule="evenodd" d="M51.4001 128.524C48.8846 128.524 46.8457 126.485 46.8457 123.969C46.8457 121.454 48.8846 119.415 51.4001 119.415C53.9156 119.415 55.9546 121.454 55.9546 123.969C55.9546 126.485 53.9156 128.524 51.4001 128.524Z" stroke="#407BFF"/>
<path fill-rule="evenodd" clip-rule="evenodd" d="M51.4001 151.947C48.8846 151.947 46.8457 149.908 46.8457 147.394C46.8457 144.877 48.8846 142.838 51.4001 142.838C53.9156 142.838 55.9546 144.877 55.9546 147.394C55.9546 149.908 53.9156 151.947 51.4001 151.947Z" stroke="#407BFF"/>
<path fill-rule="evenodd" clip-rule="evenodd" d="M51.4001 175.37C48.8846 175.37 46.8457 173.329 46.8457 170.816C46.8457 168.299 48.8846 166.261 51.4001 166.261C53.9156 166.261 55.9546 168.299 55.9546 170.816C55.9546 173.329 53.9156 175.37 51.4001 175.37Z" stroke="#407BFF"/>
<path fill-rule="evenodd" clip-rule="evenodd" d="M51.4001 198.792C48.8846 198.792 46.8457 196.752 46.8457 194.239C46.8457 191.724 48.8846 189.684 51.4001 189.684C53.9156 189.684 55.9546 191.724 55.9546 194.239C55.9546 196.752 53.9156 198.792 51.4001 198.792Z" stroke="#407BFF"/>
<path fill-rule="evenodd" clip-rule="evenodd" d="M51.4001 222.215C48.8846 222.215 46.8457 220.175 46.8457 217.662C46.8457 215.147 48.8846 213.106 51.4001 213.106C53.9156 213.106 55.9546 215.147 55.9546 217.662C55.9546 220.175 53.9156 222.215 51.4001 222.215Z" stroke="#407BFF"/>
<path fill-rule="evenodd" clip-rule="evenodd" d="M27.9773 10.1089C25.4618 10.1089 23.4229 8.06861 23.4229 5.55529C23.4229 3.04025 25.4618 1 27.9773 1C30.4928 1 32.5317 3.04025 32.5317 5.55529C32.5317 8.06861 30.4928 10.1089 27.9773 10.1089Z" stroke="#407BFF"/>
<path fill-rule="evenodd" clip-rule="evenodd" d="M27.9773 34.8325C25.4618 34.8325 23.4229 32.7922 23.4229 30.2789C23.4229 27.7639 25.4618 25.7236 27.9773 25.7236C30.4928 25.7236 32.5317 27.7639 32.5317 30.2789C32.5317 32.7922 30.4928 34.8325 27.9773 34.8325Z" stroke="#407BFF"/>
<path fill-rule="evenodd" clip-rule="evenodd" d="M27.9773 58.2553C25.4618 58.2553 23.4229 56.2151 23.4229 53.7018C23.4229 51.1867 25.4618 49.1465 27.9773 49.1465C30.4928 49.1465 32.5317 51.1867 32.5317 53.7018C32.5317 56.2151 30.4928 58.2553 27.9773 58.2553Z" stroke="#407BFF"/>
<path fill-rule="evenodd" clip-rule="evenodd" d="M27.9773 81.6782C25.4618 81.6782 23.4229 79.6397 23.4229 77.1246C23.4229 74.6096 25.4618 72.5693 27.9773 72.5693C30.4928 72.5693 32.5317 74.6096 32.5317 77.1246C32.5317 79.6397 30.4928 81.6782 27.9773 81.6782Z" stroke="#407BFF"/>
<path fill-rule="evenodd" clip-rule="evenodd" d="M27.9773 105.101C25.4618 105.101 23.4229 103.062 23.4229 100.547C23.4229 98.0311 25.4618 95.9922 27.9773 95.9922C30.4928 95.9922 32.5317 98.0311 32.5317 100.547C32.5317 103.062 30.4928 105.101 27.9773 105.101Z" stroke="#407BFF"/>
<path fill-rule="evenodd" clip-rule="evenodd" d="M27.9773 128.524C25.4618 128.524 23.4229 126.485 23.4229 123.969C23.4229 121.454 25.4618 119.415 27.9773 119.415C30.4928 119.415 32.5317 121.454 32.5317 123.969C32.5317 126.485 30.4928 128.524 27.9773 128.524Z" stroke="#407BFF"/>
<path fill-rule="evenodd" clip-rule="evenodd" d="M27.9773 151.947C25.4618 151.947 23.4229 149.908 23.4229 147.394C23.4229 144.877 25.4618 142.838 27.9773 142.838C30.4928 142.838 32.5317 144.877 32.5317 147.394C32.5317 149.908 30.4928 151.947 27.9773 151.947Z" stroke="#407BFF"/>
<path fill-rule="evenodd" clip-rule="evenodd" d="M27.9773 175.37C25.4618 175.37 23.4229 173.329 23.4229 170.816C23.4229 168.299 25.4618 166.261 27.9773 166.261C30.4928 166.261 32.5317 168.299 32.5317 170.816C32.5317 173.329 30.4928 175.37 27.9773 175.37Z" stroke="#407BFF"/>
<path fill-rule="evenodd" clip-rule="evenodd" d="M27.9773 198.792C25.4618 198.792 23.4229 196.752 23.4229 194.239C23.4229 191.724 25.4618 189.684 27.9773 189.684C30.4928 189.684 32.5317 191.724 32.5317 194.239C32.5317 196.752 30.4928 198.792 27.9773 198.792Z" stroke="#407BFF"/>
<path fill-rule="evenodd" clip-rule="evenodd" d="M27.9773 222.215C25.4618 222.215 23.4229 220.175 23.4229 217.662C23.4229 215.147 25.4618 213.106 27.9773 213.106C30.4928 213.106 32.5317 215.147 32.5317 217.662C32.5317 220.175 30.4928 222.215 27.9773 222.215Z" stroke="#407BFF"/>
<path fill-rule="evenodd" clip-rule="evenodd" d="M4.55443 10.1089C2.03891 10.1089 0 8.06861 0 5.55529C0 3.04025 2.03891 1 4.55443 1C7.06994 1 9.10886 3.04025 9.10886 5.55529C9.10886 8.06861 7.06994 10.1089 4.55443 10.1089Z" stroke="#407BFF"/>
<path fill-rule="evenodd" clip-rule="evenodd" d="M4.55443 34.8325C2.03891 34.8325 0 32.7922 0 30.2789C0 27.7639 2.03891 25.7236 4.55443 25.7236C7.06994 25.7236 9.10886 27.7639 9.10886 30.2789C9.10886 32.7922 7.06994 34.8325 4.55443 34.8325Z" stroke="#407BFF"/>
<path fill-rule="evenodd" clip-rule="evenodd" d="M4.55443 58.2553C2.03891 58.2553 0 56.2151 0 53.7018C0 51.1867 2.03891 49.1465 4.55443 49.1465C7.06994 49.1465 9.10886 51.1867 9.10886 53.7018C9.10886 56.2151 7.06994 58.2553 4.55443 58.2553Z" stroke="#407BFF"/>
<path fill-rule="evenodd" clip-rule="evenodd" d="M4.55443 81.6782C2.03891 81.6782 0 79.6397 0 77.1246C0 74.6096 2.03891 72.5693 4.55443 72.5693C7.06994 72.5693 9.10886 74.6096 9.10886 77.1246C9.10886 79.6397 7.06994 81.6782 4.55443 81.6782Z" stroke="#407BFF"/>
<path fill-rule="evenodd" clip-rule="evenodd" d="M4.55443 105.101C2.03891 105.101 0 103.062 0 100.547C0 98.0311 2.03891 95.9922 4.55443 95.9922C7.06994 95.9922 9.10886 98.0311 9.10886 100.547C9.10886 103.062 7.06994 105.101 4.55443 105.101Z" stroke="#407BFF"/>
<path fill-rule="evenodd" clip-rule="evenodd" d="M4.55443 128.524C2.03891 128.524 0 126.485 0 123.969C0 121.454 2.03891 119.415 4.55443 119.415C7.06994 119.415 9.10886 121.454 9.10886 123.969C9.10886 126.485 7.06994 128.524 4.55443 128.524Z" stroke="#407BFF"/>
<path fill-rule="evenodd" clip-rule="evenodd" d="M4.55443 151.947C2.03891 151.947 0 149.908 0 147.394C0 144.877 2.03891 142.838 4.55443 142.838C7.06994 142.838 9.10886 144.877 9.10886 147.394C9.10886 149.908 7.06994 151.947 4.55443 151.947Z" stroke="#407BFF"/>
<path fill-rule="evenodd" clip-rule="evenodd" d="M4.55443 175.37C2.03891 175.37 0 173.329 0 170.816C0 168.299 2.03891 166.261 4.55443 166.261C7.06994 166.261 9.10886 168.299 9.10886 170.816C9.10886 173.329 7.06994 175.37 4.55443 175.37Z" stroke="#407BFF"/>
<path fill-rule="evenodd" clip-rule="evenodd" d="M4.55443 198.792C2.03891 198.792 0 196.752 0 194.239C0 191.724 2.03891 189.684 4.55443 189.684C7.06994 189.684 9.10886 191.724 9.10886 194.239C9.10886 196.752 7.06994 198.792 4.55443 198.792Z" stroke="#407BFF"/>
<path fill-rule="evenodd" clip-rule="evenodd" d="M4.55443 222.215C2.03891 222.215 0 220.175 0 217.662C0 215.147 2.03891 213.106 4.55443 213.106C7.06994 213.106 9.10886 215.147 9.10886 217.662C9.10886 220.175 7.06994 222.215 4.55443 222.215Z" stroke="#407BFF"/>
</svg>
